<svg width="268" height="43" viewBox="0 0 268 43" fill="none" xmlns="http://www.w3.org/2000/svg">
<path d="M20 6.45476C20 11.9776 14.2293 21 9.16667 21C4.10406 21 0 16.5229 0 11C0 5.47718 4.10406 1.00004 9.16667 1.00004C14.2293 1.00004 20 0.93192 20 6.45476Z" fill="#E7C727"/>
<path d="M36.5452 21.0002C31.0224 21.0002 22 15.2295 22 10.1668C22 5.10424 26.4771 1.00018 32 1.00018C37.5228 1.00018 42 5.10424 42 10.1668C42 15.2295 42.0681 21.0002 36.5452 21.0002Z" fill="#70CB97"/>
<path d="M22 37.5454C22 32.0226 27.7707 23.0002 32.8333 23.0002C37.8959 23.0002 42 27.4773 42 33.0002C42 38.523 37.8959 43.0001 32.8333 43.0001C27.7707 43.0001 22 43.0683 22 37.5454Z" fill="#73C4E7"/>
<path d="M5.45476 23.0004C10.9776 23.0004 20 28.7711 20 33.8337C20 38.8963 15.5229 43.0004 10 43.0004C4.47718 43.0004 3.95586e-05 38.8963 3.95586e-05 33.8337C3.95586e-05 28.7711 -0.0680801 23.0004 5.45476 23.0004Z" fill="#DD77D6"/>
<path d="M211.494 14.5137C211.467 14.8646 211.399 15.2077 211.288 15.54L211.282 15.5576L211.276 15.5742C211.129 15.968 210.925 16.3296 210.66 16.6475L210.279 17.1045L209.695 16.9883C209.355 16.9203 208.897 16.8485 208.312 16.7754C207.755 16.7058 207.199 16.6719 206.644 16.6719C204.996 16.6719 203.58 16.8513 202.383 17.1934L202.369 17.1963L202.356 17.2002C201.367 17.4545 200.539 17.7474 199.859 18.0713V39.085L199.231 39.3359C198.968 39.4414 198.63 39.5274 198.256 39.6035C197.792 39.7369 197.3 39.7998 196.788 39.7998C195.87 39.7998 194.995 39.6112 194.34 39.0625C193.65 38.4852 193.38 37.6606 193.38 36.7832V17.7998C193.38 16.8434 193.543 15.9632 193.976 15.2598L193.981 15.251L193.986 15.2432C194.425 14.5615 195.089 13.9642 195.906 13.4326C196.992 12.7235 198.401 12.1494 200.094 11.6865C201.879 11.1707 203.861 10.9199 206.027 10.9199C207.572 10.9199 208.879 11.1072 209.835 11.585C210.327 11.8309 210.756 12.1693 211.06 12.625C211.367 13.0869 211.508 13.611 211.508 14.1592L211.494 14.5137Z" fill="white"/>
<path d="M187.654 17.1035H182L182.056 22.7432H185.855C186.605 22.7432 187.347 22.5407 187.887 21.9658C188.35 21.473 188.542 20.8353 188.583 20.1777L188.592 19.8955C188.592 19.3978 188.525 18.9184 188.36 18.4805L188.265 18.2373C188.167 18 188.061 17.7813 187.945 17.5889L187.654 17.1035Z" fill="white"/>
<path d="M191.934 9.7334C192.776 8.99018 193.224 8.02923 193.224 6.91113C193.223 5.48467 192.133 4.54145 190.801 3.93359C189.416 3.28463 187.587 3 185.392 3C182.07 3.00006 179.333 3.78149 177.306 5.46973C175.235 7.18805 174.312 9.90445 174.312 13.3516V36.7832C174.312 37.6606 174.583 38.4852 175.272 39.0625C175.928 39.6111 176.802 39.7998 177.72 39.7998C178.232 39.7998 178.725 39.7372 179.189 39.6035C179.563 39.5275 179.9 39.4413 180.163 39.3359L180.792 39.085V22.7432L180.736 17.1035V13.5752C180.736 11.6348 181.165 10.4516 181.802 9.78809C182.408 9.15646 183.643 8.69533 185.84 8.69531C186.679 8.69531 187.566 8.81317 188.501 9.05566L188.518 9.05957L188.535 9.06348L188.88 9.14551C189.662 9.34206 190.292 9.58306 190.786 9.85742L191.404 10.2012L191.934 9.7334Z" fill="white"/>
<path d="M260.734 1.71484L261.362 1.46289C261.631 1.35544 261.976 1.26851 262.358 1.19141C262.836 1.06527 263.319 1.00002 263.806 1C264.723 1 265.598 1.18846 266.254 1.7373C266.943 2.31462 267.214 3.13832 267.214 4.01562V39.2451L266.585 39.4961C266.322 39.6014 265.985 39.6877 265.611 39.7637C265.147 39.8973 264.654 39.96 264.142 39.96C263.224 39.9599 262.35 39.7712 261.694 39.2227C261.005 38.6453 260.734 37.8208 260.734 36.9434V1.71484Z" fill="url(#paint0_linear_6_913)"/>
<path d="M247.789 1.71484L248.417 1.46289C248.686 1.35544 249.031 1.26851 249.413 1.19141C249.891 1.06527 250.374 1.00002 250.86 1C251.778 1 252.653 1.18846 253.309 1.7373C253.998 2.31462 254.269 3.13832 254.269 4.01562V39.2451L253.64 39.4961C253.376 39.6014 253.04 39.6877 252.666 39.7637C252.201 39.8973 251.709 39.96 251.196 39.96C250.279 39.9599 249.404 39.7712 248.749 39.2227C248.059 38.6453 247.789 37.8208 247.789 36.9434V1.71484Z" fill="url(#paint1_linear_6_913)"/>
<path d="M228.52 3.35156C229.362 3.35156 230.174 3.47811 230.948 3.73438L230.964 3.73926C231.841 4.01921 232.584 4.54712 232.916 5.42578C233.818 7.60461 234.773 10.0969 235.783 12.9014C236.831 15.6695 237.878 18.5127 238.925 21.4297C239.973 24.3498 240.966 27.233 241.902 30.0791C242.629 32.1766 243.293 34.1284 243.896 35.9346L244.479 37.6963L244.657 38.2422L244.275 38.6719C243.884 39.1126 243.415 39.4579 242.878 39.7021C242.321 39.9917 241.709 40.1279 241.064 40.1279C240.286 40.1279 239.534 39.9763 238.934 39.5498L238.815 39.4609L238.793 39.4424L238.771 39.4229C238.221 38.9278 237.832 38.2085 237.544 37.3857L237.541 37.376L235.251 30.6074H221.673C221.481 31.1632 221.279 31.7562 221.068 32.3877L221.064 32.4004C221.061 32.4094 221.054 32.4315 221.051 32.4404C221.048 32.4493 221.039 32.4715 221.036 32.4805C221.033 32.4893 221.026 32.5113 221.022 32.5205C221.019 32.5295 221.012 32.5526 221.009 32.5615C221.006 32.5706 220.997 32.5927 220.994 32.6016L220.967 32.6816C220.964 32.6906 220.955 32.7137 220.952 32.7227L220.925 32.8027C220.922 32.8117 220.913 32.8338 220.91 32.8428C220.907 32.8516 220.9 32.8736 220.896 32.8828C220.893 32.8918 220.886 32.9149 220.883 32.9238C220.88 32.9329 220.871 32.955 220.868 32.9639L220.841 33.0439C220.838 33.0528 220.829 33.0748 220.826 33.084C220.823 33.0929 220.816 33.1161 220.812 33.125C220.809 33.1341 220.802 33.1562 220.799 33.165C220.796 33.174 220.787 33.1961 220.784 33.2051C220.781 33.2139 220.774 33.236 220.771 33.2451C220.767 33.2541 220.76 33.2772 220.757 33.2861C220.754 33.2953 220.745 33.3173 220.742 33.3262L220.715 33.4062C220.712 33.4151 220.703 33.4372 220.7 33.4463C220.697 33.4552 220.69 33.4784 220.687 33.4873C220.683 33.4964 220.676 33.5185 220.673 33.5273C220.67 33.5363 220.661 33.5584 220.658 33.5674C220.655 33.5763 220.648 33.5983 220.645 33.6074C220.641 33.6164 220.634 33.6395 220.631 33.6484C220.628 33.6576 220.619 33.6796 220.616 33.6885C220.612 33.7012 220.618 33.6852 220.613 33.6982C220.609 33.7116 220.614 33.6951 220.609 33.708C220.605 33.7214 220.611 33.7053 220.606 33.7188L220.599 33.7383C220.594 33.7517 220.6 33.7356 220.596 33.749C220.591 33.7618 220.596 33.7455 220.592 33.7588C220.587 33.7718 220.593 33.7557 220.589 33.7686C220.584 33.7818 220.589 33.7656 220.585 33.7783C220.58 33.7917 220.586 33.7757 220.581 33.7891C220.577 33.8018 220.583 33.7857 220.578 33.7988C220.573 33.8122 220.579 33.7956 220.574 33.8086C220.57 33.822 220.576 33.8059 220.571 33.8193C220.567 33.8324 220.572 33.8158 220.567 33.8291C220.563 33.8423 220.569 33.8262 220.564 33.8389C220.56 33.8523 220.565 33.8362 220.561 33.8496C220.556 33.8624 220.561 33.8461 220.557 33.8594C220.552 33.8723 220.558 33.8562 220.554 33.8691C220.549 33.8825 220.554 33.8665 220.55 33.8799C220.545 33.8924 220.551 33.8764 220.547 33.8896L220.539 33.9092C220.534 33.9226 220.541 33.9065 220.536 33.9199C220.532 33.933 220.537 33.9163 220.532 33.9297C220.528 33.9428 220.534 33.9268 220.529 33.9395C220.525 33.9529 220.53 33.9368 220.525 33.9502C220.521 33.9629 220.527 33.9468 220.522 33.96C220.518 33.9733 220.523 33.9567 220.519 33.9697C220.514 33.9831 220.519 33.9671 220.515 33.9805C220.51 33.9929 220.516 33.977 220.512 33.9902C220.507 34.0035 220.512 33.9867 220.508 34C220.503 34.0132 220.509 33.9973 220.505 34.0098C220.5 34.0232 220.506 34.0071 220.501 34.0205C220.496 34.0335 220.502 34.0169 220.497 34.0303C220.492 34.0434 220.499 34.0273 220.494 34.04C220.489 34.0534 220.495 34.0374 220.49 34.0508C220.486 34.0635 220.492 34.0474 220.487 34.0605C220.483 34.0739 220.488 34.0573 220.483 34.0703C220.479 34.0837 220.485 34.0676 220.48 34.0811L220.473 34.1006C220.468 34.1138 220.474 34.0979 220.47 34.1104C220.465 34.1238 220.47 34.1077 220.466 34.1211C220.461 34.134 220.467 34.1179 220.463 34.1309C220.458 34.1441 220.463 34.1279 220.459 34.1406C220.454 34.154 220.46 34.138 220.455 34.1514C220.451 34.1641 220.457 34.148 220.452 34.1611C220.448 34.1745 220.453 34.1579 220.448 34.1709C220.444 34.1843 220.45 34.1682 220.445 34.1816C220.441 34.1946 220.446 34.1781 220.441 34.1914C220.437 34.2045 220.443 34.1884 220.438 34.2012C220.434 34.2146 220.439 34.1985 220.435 34.2119C220.43 34.2246 220.435 34.2084 220.431 34.2217C220.426 34.2346 220.432 34.2185 220.428 34.2314C220.423 34.2447 220.428 34.2284 220.424 34.2412C220.419 34.2546 220.426 34.2385 220.421 34.252L220.413 34.2715C220.408 34.2849 220.415 34.2688 220.41 34.2822C220.406 34.2952 220.411 34.2787 220.406 34.292C220.402 34.3051 220.408 34.289 220.403 34.3018C220.399 34.3152 220.404 34.2991 220.399 34.3125C220.395 34.3252 220.401 34.3091 220.396 34.3223L220.389 34.3418C220.384 34.3552 220.39 34.3391 220.386 34.3525C220.381 34.3657 220.386 34.349 220.382 34.3623C220.377 34.3756 220.383 34.3595 220.379 34.3721C220.374 34.3855 220.38 34.3694 220.375 34.3828C220.371 34.3957 220.376 34.3793 220.371 34.3926C220.367 34.4057 220.373 34.3896 220.368 34.4023C220.364 34.4158 220.369 34.3997 220.364 34.4131C220.36 34.4257 220.366 34.4096 220.361 34.4229C220.357 34.4362 220.362 34.4195 220.357 34.4326C220.353 34.446 220.358 34.43 220.354 34.4434C220.349 34.4557 220.355 34.4399 220.351 34.4531C220.346 34.4663 220.351 34.4496 220.347 34.4629C220.342 34.4761 220.348 34.4601 220.344 34.4727C220.339 34.4861 220.345 34.47 220.34 34.4834C220.335 34.4963 220.341 34.4802 220.337 34.4932C220.332 34.5065 220.337 34.4901 220.333 34.5029C220.328 34.5163 220.334 34.5003 220.329 34.5137C220.325 34.5263 220.331 34.5102 220.326 34.5234C220.322 34.5368 220.327 34.5201 220.322 34.5332C220.318 34.5466 220.324 34.5305 220.319 34.5439L220.312 34.5635C220.307 34.5767 220.313 34.5607 220.309 34.5732C220.304 34.5867 220.309 34.5706 220.305 34.584C220.3 34.5968 220.306 34.5807 220.302 34.5938C220.297 34.6071 220.302 34.5906 220.298 34.6035C220.293 34.6169 220.3 34.6008 220.295 34.6143L220.287 34.6338C220.282 34.6472 220.289 34.6311 220.284 34.6445C220.28 34.6574 220.285 34.641 220.28 34.6543C220.277 34.6633 220.27 34.6853 220.267 34.6943C220.263 34.7054 220.266 34.6934 220.263 34.7041C220.259 34.7153 220.264 34.7037 220.26 34.7148C220.256 34.7258 220.26 34.7135 220.256 34.7246C220.252 34.7356 220.257 34.724 220.253 34.7344C220.249 34.7455 220.253 34.7339 220.249 34.7451C220.245 34.7558 220.249 34.7438 220.245 34.7549C220.241 34.7657 220.246 34.754 220.242 34.7646C220.238 34.7758 220.242 34.7642 220.238 34.7754C220.235 34.7858 220.239 34.7741 220.235 34.7852L220.228 34.8047C220.224 34.8159 220.228 34.8043 220.225 34.8154C220.221 34.8263 220.225 34.8141 220.221 34.8252C220.217 34.8362 220.221 34.8245 220.218 34.835C220.214 34.8461 220.218 34.8345 220.214 34.8457C220.21 34.8563 220.215 34.8446 220.211 34.8555C220.207 34.8666 220.211 34.8545 220.207 34.8652C220.203 34.8764 220.207 34.8648 220.203 34.876C220.2 34.8863 220.204 34.8747 220.2 34.8857C220.196 34.8968 220.2 34.8845 220.196 34.8955C220.192 34.9067 220.197 34.8951 220.193 34.9062L220.186 34.9258C220.182 34.9368 220.186 34.9251 220.183 34.9355C220.179 34.9467 220.183 34.9351 220.179 34.9463C220.175 34.9569 220.18 34.9452 220.176 34.9561C220.172 34.9665 220.175 34.9563 220.172 34.9639C219.909 35.7887 219.647 36.5777 219.384 37.3301L219.378 37.3457C219.12 38.0452 218.921 38.6242 218.779 39.0859L218.644 39.5283L218.218 39.7109C217.544 39.9997 216.788 40.1279 215.976 40.1279C215.299 40.1279 214.66 39.9776 214.075 39.6719L213.828 39.5312L213.789 39.5068L213.752 39.4795C212.986 38.9052 212.68 38.0427 212.68 37.1113C212.68 36.6623 212.755 36.2194 212.899 35.7871C213.015 35.4025 213.149 35.0018 213.3 34.5859C213.858 33.0221 214.567 31.0107 215.424 28.5508L215.428 28.5381C216.324 26.0738 217.276 23.4601 218.284 20.6973L218.287 20.6895C219.332 17.8897 220.378 15.0898 221.423 12.29L221.426 12.2832C222.51 9.44213 223.501 6.89834 224.399 4.65234L224.541 4.29883L224.881 4.12891C225.278 3.93035 225.81 3.76031 226.43 3.60547C227.109 3.43578 227.806 3.3516 228.52 3.35156ZM228.005 12.3613L228.002 12.3691C227.481 13.7843 226.941 15.2747 226.382 16.8398C225.823 18.4054 225.263 19.9898 224.704 21.5928C224.312 22.7171 223.94 23.8052 223.585 24.8555H233.397C233.263 24.4577 233.129 24.0589 232.992 23.6611L232.114 21.1504L232.111 21.1445C231.515 19.4296 230.937 17.7888 230.378 16.2236L230.375 16.2139L230.371 16.2041C229.851 14.6449 229.351 13.2182 228.87 11.9238L228.864 11.9082L228.859 11.8916C228.745 11.5494 228.637 11.2202 228.532 10.9043C228.364 11.3698 228.187 11.8549 228.005 12.3613Z" fill="url(#paint2_linear_6_913)"/>
<path d="M158.111 11.5361H166.861L167.152 12.0215C167.318 12.2972 167.457 12.6361 167.58 13.0039C167.732 13.4221 167.799 13.8678 167.799 14.3281C167.799 15.088 167.634 15.8446 167.129 16.417C166.603 17.0134 165.868 17.2314 165.119 17.2314H158.111V30.792C158.111 32.1011 158.464 32.8016 158.937 33.1777C159.567 33.607 160.527 33.8799 161.927 33.8799C162.446 33.8799 163.062 33.7874 163.78 33.582C164.512 33.3729 165.085 33.1391 165.519 32.8916L166.182 32.5127L166.722 33.0527C167.024 33.3547 167.282 33.7137 167.505 34.1143C167.787 34.6217 167.911 35.1859 167.911 35.7754C167.911 37.0898 167.096 38.0435 165.929 38.6719C164.753 39.3048 163.222 39.5752 161.423 39.5752C158.665 39.5752 156.318 38.9645 154.463 37.6572L154.454 37.6514C152.501 36.2433 151.631 33.9556 151.631 31.0713V3.79492L152.26 3.54297C152.533 3.43377 152.884 3.34462 153.274 3.2666C153.755 3.14192 154.25 3.0801 154.759 3.08008C155.662 3.08008 156.527 3.26987 157.174 3.82422C157.85 4.4039 158.111 5.22584 158.111 6.0957V11.5361Z" fill="white"/>
<path d="M121.786 17.0156C121.786 16.1136 121.956 15.2793 122.382 14.5879L122.388 14.5791L122.393 14.5713C122.839 13.8776 123.533 13.278 124.388 12.749L124.39 12.748C125.459 12.0898 126.835 11.5182 128.488 11.0186C130.204 10.4998 132.115 10.248 134.21 10.248C137.745 10.2481 140.656 11.0434 142.829 12.7529C145.125 14.5292 146.186 17.2781 146.186 20.7676V38.4131L145.558 38.6641C145.282 38.7745 144.914 38.8605 144.508 38.9355C144.058 39.0634 143.592 39.1279 143.114 39.1279C142.197 39.1279 141.322 38.9394 140.666 38.3906C139.976 37.8133 139.706 36.9887 139.706 36.1113V20.9912C139.706 19.0874 139.168 17.8944 138.283 17.1758L138.271 17.166C137.344 16.3879 136.027 15.9434 134.21 15.9434C132.798 15.9434 131.58 16.1201 130.541 16.4551C129.668 16.7368 128.911 17.0475 128.266 17.3818V38.4131L127.638 38.6641C127.374 38.7696 127.036 38.8555 126.662 38.9316C126.198 39.065 125.707 39.1279 125.194 39.1279C124.277 39.1279 123.402 38.9394 122.746 38.3906C122.056 37.8133 121.786 36.9887 121.786 36.1113V17.0156Z" fill="white"/>
<path d="M116.038 38.4131L115.409 38.6641C115.146 38.7694 114.809 38.8556 114.436 38.9316C113.971 39.0653 113.479 39.1279 112.966 39.1279C112.048 39.1279 111.174 38.9392 110.519 38.3906C109.829 37.8133 109.559 36.9887 109.559 36.1113V11.4102L110.187 11.1592C110.458 11.0507 110.806 10.9614 111.193 10.8838C111.676 10.7577 112.175 10.6953 112.687 10.6953C113.596 10.6954 114.464 10.8929 115.111 11.4629C115.783 12.0543 116.038 12.8876 116.038 13.7676V38.4131ZM116.654 3.7998C116.654 4.83037 116.301 5.74818 115.602 6.49805L115.59 6.51074L115.577 6.52246C114.837 7.26308 113.875 7.59961 112.798 7.59961C111.719 7.59955 110.756 7.26344 109.988 6.54688L109.963 6.52344L109.939 6.49805C109.24 5.74815 108.886 4.83044 108.886 3.7998C108.886 2.76854 109.241 1.85524 109.963 1.13281C110.727 0.368602 111.699 6.119e-05 112.798 0C113.897 0 114.866 0.369011 115.602 1.15723C116.308 1.87585 116.654 2.77989 116.654 3.7998Z" fill="white"/>
<path d="M107.023 13.4873C107.023 13.9623 106.951 14.4248 106.804 14.8682L106.798 14.8857L106.792 14.9023C106.644 15.2962 106.441 15.6577 106.176 15.9756L105.795 16.4326L105.211 16.3164C104.871 16.2484 104.412 16.1767 103.827 16.1035C103.271 16.034 102.715 16 102.159 16C100.512 16 99.0958 16.1794 97.8984 16.5215L97.8848 16.5244L97.8721 16.5283C96.883 16.7827 96.0544 17.0756 95.375 17.3994V38.4131L94.7471 38.6641C94.4833 38.7696 94.1457 38.8555 93.7715 38.9316C93.3073 39.065 92.8159 39.1279 92.3037 39.1279C91.386 39.1279 90.511 38.9394 89.8555 38.3906C89.1659 37.8133 88.8955 36.9887 88.8955 36.1113V17.1279C88.8955 16.1716 89.0585 15.2914 89.4912 14.5879L89.4971 14.5791L89.502 14.5713C89.9402 13.8896 90.6041 13.2923 91.4219 12.7607C92.5071 12.0516 93.9162 11.4775 95.6094 11.0146C97.3951 10.4988 99.3763 10.2481 101.543 10.248C103.087 10.248 104.395 10.4353 105.351 10.9131C105.843 11.1591 106.271 11.4974 106.575 11.9531C106.883 12.415 107.023 12.9391 107.023 13.4873Z" fill="white"/>
<path d="M60 6.26367C60 5.53101 60.1793 4.8028 60.7002 4.25488C61.1656 3.73138 61.822 3.39689 62.5508 3.18066L62.998 3.0498C64.0643 2.75693 65.2917 2.54666 66.6709 2.41211H66.6729C68.2698 2.26002 69.8136 2.18359 71.3037 2.18359C76.1443 2.18361 79.8971 3.20561 82.332 5.46387L82.5576 5.67188C84.8511 7.84737 85.9677 10.7502 85.9678 14.2715C85.9678 17.98 84.7605 21.0408 82.29 23.3467L82.2832 23.3525C79.7816 25.6457 76.0352 26.6953 71.248 26.6953H66.5918V38.4561L65.9082 38.6846C65.6412 38.7736 65.315 38.8523 64.9443 38.9277C64.4764 39.0637 63.9807 39.1279 63.4639 39.1279C62.5266 39.1279 61.6367 38.9342 60.9717 38.375C60.2736 37.7879 60 36.9502 60 36.0557V6.26367ZM79.376 14.3281C79.376 12.0102 78.6553 10.5121 77.3828 9.59473L77.3613 9.5791C76.035 8.56864 74.0252 7.99121 71.1914 7.99121C70.2207 7.99122 69.2497 8.0454 68.2783 8.15332L68.2607 8.15527L68.2441 8.15625C67.6315 8.20338 67.0624 8.26821 66.5352 8.34473V20.8877H70.9678C73.8326 20.8877 75.9048 20.2943 77.3115 19.2393C78.6388 18.2437 79.3759 16.6778 79.376 14.3281Z" fill="white"/>
<defs>
<linearGradient id="paint0_linear_6_913" x1="274.5" y1="0.999997" x2="208.5" y2="37" gradientUnits="userSpaceOnUse">
<stop offset="0.0956346" stop-color="#DD77D6"/>
<stop offset="0.405644" stop-color="#E7C727"/>
<stop offset="0.687808" stop-color="#70CB97"/>
<stop offset="1" stop-color="#73C4E7"/>
</linearGradient>
<linearGradient id="paint1_linear_6_913" x1="274.5" y1="0.999997" x2="208.5" y2="37" gradientUnits="userSpaceOnUse">
<stop offset="0.0956346" stop-color="#DD77D6"/>
<stop offset="0.405644" stop-color="#E7C727"/>
<stop offset="0.687808" stop-color="#70CB97"/>
<stop offset="1" stop-color="#73C4E7"/>
</linearGradient>
<linearGradient id="paint2_linear_6_913" x1="274.5" y1="0.999997" x2="208.5" y2="37" gradientUnits="userSpaceOnUse">
<stop offset="0.0956346" stop-color="#DD77D6"/>
<stop offset="0.405644" stop-color="#E7C727"/>
<stop offset="0.687808" stop-color="#70CB97"/>
<stop offset="1" stop-color="#73C4E7"/>
</linearGradient>
</defs>
</svg>
